<svg xmlns="http://www.w3.org/2000/svg" width="1481.89" height="286.96" viewBox="0 0 1481.89 286.96">
  <path id="Tracciato_2472" data-name="Tracciato 2472" d="M11.22-113.9V0H88.91c42.33,0,66.3-15.3,66.3-51.85v-9.52c0-36.89-24.82-52.53-66.3-52.53ZM41.31-89.59h47.6c26.52,0,35.7,9.69,35.7,28.22v9.52c0,18.36-9.52,27.54-35.7,27.54H41.31ZM175.1-113.9V0H301.75V-23.63H205.02V-46.92h86.36V-68.85H205.02V-90.44H300.9V-113.9Zm146.71,0V0h95.37c28.56,0,40.97-12.07,40.97-29.07v-4.59c0-11.22-5.27-19.21-15.81-23.63v-4.42c8.33-4.59,13.6-11.05,13.6-21.76V-86.7c0-19.89-16.66-27.2-40.8-27.2Zm29.41,21.59h58.31c10.37,0,16.32,3.57,16.32,11.22v2.72c0,7.65-6.63,11.05-16.32,11.05H351.22Zm0,44.03h58.65c11.56,0,18.19,3.23,18.19,11.9v2.72c0,7.99-5.95,12.07-18.19,12.07H351.22Zm196.52-67.15c-41.65,0-74.8,20.06-74.8,55.76v5.44c0,36.04,33.15,55.76,74.8,55.76h8.16c40.8,0,73.27-19.72,73.27-55.76v-5.44c0-35.7-32.47-55.76-73.27-55.76Zm0,25.67h6.8c26.86,0,44.03,10.71,44.03,30.09v5.44c0,19.55-17.17,30.09-44.03,30.09h-6.8c-26.86,0-44.03-10.54-44.03-30.09v-5.44C503.71-79.05,520.88-89.76,547.74-89.76ZM649.06-113.9V0h30.09V-41.14h49.98L755.99,0h34.17L761.77-43.52c14.45-4.76,23.12-16.49,23.12-31.45v-5.1c0-19.72-14.96-33.83-40.12-33.83Zm30.09,22.44h57.63c11.56,0,17.51,4.42,17.51,12.75v2.55c0,8.67-5.95,12.24-17.51,12.24H679.15ZM856.63-113.9,797.47,0h29.07L839.8-25.5h77.35L930.41,0H960.5L901.17-113.9Zm18.02,20.91h7.31l23.29,44.54H851.7ZM80.58,54.57C40.12,54.57,8.5,71.06,8.5,109.31v7.14c0,37.91,31.62,55.08,72.08,55.08h5.27c41.99,0,72.25-17.17,72.25-47.09H127.33c0,11.56-13.94,21.42-41.48,21.42H80.58c-27.03,0-41.31-9.69-41.31-29.41v-7.14c0-19.04,14.28-29.07,41.31-29.07h5.27c27.71,0,40.97,9.01,40.97,21.08h30.6c0-31.11-29.58-46.75-71.57-46.75Zm92.99,1.53V80.41h31.28v65.28H173.57V170h92.48V145.69H234.77V80.41h31.28V56.1Zm179.18-1.53c-40.46,0-72.08,16.49-72.08,54.74v7.14c0,37.91,31.62,55.08,72.08,55.08h5.27c41.99,0,72.25-17.17,72.25-47.09H399.5c0,11.56-13.94,21.42-41.48,21.42h-5.27c-27.03,0-41.31-9.69-41.31-29.41v-7.14c0-19.04,14.28-29.07,41.31-29.07h5.27c27.71,0,40.97,9.01,40.97,21.08h30.6c0-31.11-29.58-46.75-71.57-46.75Zm164.9,0c-40.46,0-72.08,16.49-72.08,54.74v7.14c0,37.91,31.62,55.08,72.08,55.08h5.27c41.99,0,72.25-17.17,72.25-47.09H564.4c0,11.56-13.94,21.42-41.48,21.42h-5.27c-27.03,0-41.31-9.69-41.31-29.41v-7.14c0-19.04,14.28-29.07,41.31-29.07h5.27c27.71,0,40.97,9.01,40.97,21.08h30.6c0-31.11-29.58-46.75-71.57-46.75Zm167.62,0c-41.65,0-74.8,20.06-74.8,55.76v5.44c0,36.04,33.15,55.76,74.8,55.76h8.16c40.8,0,73.27-19.72,73.27-55.76v-5.44c0-35.7-32.47-55.76-73.27-55.76Zm0,25.67h6.8c26.86,0,44.03,10.71,44.03,30.09v5.44c0,19.55-17.17,30.09-44.03,30.09h-6.8c-26.86,0-44.03-10.54-44.03-30.09v-5.44C641.24,90.95,658.41,80.24,685.27,80.24ZM786.59,56.1V170h28.56V91.97h4.42L889.1,170h39.1V56.1H899.64v78.03h-4.25L825.86,56.1Zm164.22,0V170h126.65V146.37H980.73V123.08h86.36V101.15H980.73V79.56h95.88V56.1Zm139.06,0V80.41h57.12V170h30.09V80.41h57.12V56.1Zm151.47,0V80.41h57.12V170h30.09V80.41h57.12V56.1Zm156.57,0V80.41h31.28v65.28h-31.28V170h92.48V145.69h-31.28V80.41h31.28V56.1Z" transform="translate(-8.5 115.43)"/>
</svg>
