<svg xmlns="http://www.w3.org/2000/svg" width="1578.28" height="247.43" viewBox="0 0 1578.28 247.43">
  <g id="Raggruppa_108" data-name="Raggruppa 108" transform="translate(706.32 -4925.1)">
    <path id="Tracciato_2478" data-name="Tracciato 2478" d="M-1155.242-114.9h33.008l45.56,90.44h6.416l45.22-90.44h31.986L-1051,1h-45.944Zm31.776,2H-1152L-1095.714-1h43.476l55.95-111.9H-1023.8l-45.22,90.44h-8.884Zm140.036-2h94.48v26.31h-31.28v63.28h31.28V1h-94.48V-25.31h31.28V-88.59h-31.28Zm92.48,2h-90.48v22.31h31.28v67.28h-31.28V-1h90.48V-23.31h-31.28V-90.59h31.28Zm19.89-2h96.71c12.385,0,22.811,3.377,30.151,9.766a31.145,31.145,0,0,1,8.154,11.057A34.659,34.659,0,0,1-733.23-80.07v5.1a35.9,35.9,0,0,1-1.627,10.858,31.843,31.843,0,0,1-4.709,9.285,32.53,32.53,0,0,1-7.5,7.306,37.42,37.42,0,0,1-8.747,4.526L-727.114,1h-36.558l-.3-.453L-790.531-40.14H-838.97V1h-32.09ZM-730.806-1-758.9-44.063l1.235-.407a35.855,35.855,0,0,0,9.446-4.686,30.533,30.533,0,0,0,7.04-6.857,29.844,29.844,0,0,0,4.413-8.7A33.907,33.907,0,0,0-735.23-74.97v-5.1a32.673,32.673,0,0,0-2.647-13.2,29.159,29.159,0,0,0-7.635-10.352c-6.971-6.067-16.943-9.274-28.838-9.274h-94.71V-1h28.09V-42.14h51.521l.3.453L-762.589-1Zm6.8-113.9h146.33v26.31H-634.8V1h-32.09V-88.59h-57.12Zm144.33,2H-722.01v22.31h57.12V-1h28.09V-90.59h57.12Zm13.09-2h32.09v61.35c0,9.868,2.736,16.884,8.364,21.451,5.771,4.683,14.72,6.959,27.356,6.959h6.63c12.573,0,21.5-2.277,27.294-6.96,5.67-4.584,8.426-11.6,8.426-21.45V-114.9h32.09v61.35a73.5,73.5,0,0,1-1.293,14.127,53.5,53.5,0,0,1-3.762,11.892,44.782,44.782,0,0,1-6.045,9.747,44.947,44.947,0,0,1-8.112,7.687A60.659,60.659,0,0,1-465.045-.44a112.961,112.961,0,0,1-27.1,2.97h-6.63A113.389,113.389,0,0,1-525.956-.44,60.475,60.475,0,0,1-547.442-10.1a44.779,44.779,0,0,1-8.093-7.688,44.719,44.719,0,0,1-6.024-9.747A53.611,53.611,0,0,1-565.3-39.424,73.858,73.858,0,0,1-566.59-53.55Zm30.09,2h-28.09v59.35a71.861,71.861,0,0,0,1.248,13.742,51.622,51.622,0,0,0,3.6,11.447,42.723,42.723,0,0,0,5.754,9.312,42.783,42.783,0,0,0,7.732,7.343,58.5,58.5,0,0,0,20.78,9.325A111.4,111.4,0,0,0-498.78.53h6.63c20.456,0,36.407-4.117,47.41-12.236a42.945,42.945,0,0,0,7.752-7.344,42.777,42.777,0,0,0,5.774-9.312A51.5,51.5,0,0,0-427.6-39.809,71.5,71.5,0,0,0-426.34-53.55V-112.9h-28.09v59.35a36.372,36.372,0,0,1-2.221,13.423,22.878,22.878,0,0,1-6.948,9.582c-6.163,4.983-15.5,7.4-28.551,7.4h-6.63c-13.114,0-22.475-2.423-28.616-7.406-6.126-4.97-9.1-12.5-9.1-23Zm174.983-2h45.754l.28.538L-255.392,1h-32.346L-301-24.5h-76.136L-390.393,1h-31.323Zm44.541,2H-360.3L-418.424-1h26.817l13.26-25.5h78.564L-286.523-1h27.834Zm73.727-2h32.09v89.59h87.72V1H-243.25Zm30.09,2h-28.09V-1h115.81V-23.31h-87.72Zm140.25,6.84h24.95v36.55H-8.01v24.95H-47.96V-8.01H-72.91V-44.56h-40.12V-69.51h40.12Zm22.95,2H-70.91v36.55h-40.12v20.95h40.12v36.55h20.95V-46.56h39.95V-67.51H-49.96ZM-343.5-93.99h8.525l24.336,46.54H-367.48l.751-1.458Zm7.314,2h-6.095L-364.2-49.45h50.259Zm-504.784-.47h58.63c5.955,0,10.558,1.159,13.681,3.444,3.2,2.345,4.829,5.813,4.829,10.306v2.55a13.916,13.916,0,0,1-1.207,6,10.416,10.416,0,0,1-3.654,4.2c-3.035,2.045-7.5,3.039-13.649,3.039h-58.63Zm58.63,27.54c5.738,0,9.837-.883,12.531-2.7,2.677-1.8,3.979-4.6,3.979-8.542v-2.55a11.986,11.986,0,0,0-1.017-5.084A9.315,9.315,0,0,0-769.84-87.4c-2.773-2.029-6.978-3.058-12.5-3.058h-56.63v25.54Z" transform="translate(874 5040)" fill="#1b1b1b"/>
    <path id="Tracciato_2479" data-name="Tracciato 2479" d="M-1521.16,17.1-1580.32,131h29.07l13.26-25.5h77.35l13.26,25.5h30.09l-59.33-113.9Zm18.02,20.91h7.31l23.29,44.54h-53.55ZM-1402.5,17.1V131h30.09V89.86h49.98l26.86,41.14h34.17l-28.39-43.52c14.45-4.76,23.12-16.49,23.12-31.45v-5.1c0-19.72-14.96-33.83-40.12-33.83Zm30.09,22.44h57.63c11.56,0,17.51,4.42,17.51,12.75v2.55c0,8.67-5.95,12.24-17.51,12.24h-57.63Zm116.96-22.44V41.41h57.12V131h30.09V41.41h57.12V17.1Zm270.98-1.53c-38.76,0-70.55,17-70.55,54.74v7.14c0,37.91,29.92,55.08,66.3,55.08h8.33c17.85,0,33.32-5.27,43.69-15.13h5.78V131h25.84V84.08h-31.11c0,13.6-14.11,22.78-39.95,22.78h-8.33c-25.5,0-39.78-9.86-39.78-29.41V70.31c0-18.53,14.28-29.07,39.78-29.07h8.33c26.01,0,39.44,9.35,39.44,21.25h30.6c0-30.6-29.58-46.92-70.04-46.92Zm152.66,1.53L-890.97,131h29.07l13.26-25.5h77.35l13.26,25.5h30.09L-787.27,17.1Zm18.02,20.91h7.31l23.29,44.54h-53.55ZM-713.15,131h117.81V106.69h-87.72V17.1h-30.09Zm132.6,0h117.81V106.69h-87.72V17.1h-30.09Zm132.6-113.9V131H-321.3V107.37h-96.73V84.08h86.36V62.15h-86.36V40.56h95.88V17.1Zm146.71,0V131h30.09V89.86h49.98L-194.31,131h34.17l-28.39-43.52c14.45-4.76,23.12-16.49,23.12-31.45v-5.1c0-19.72-14.96-33.83-40.12-33.83Zm30.09,22.44h57.63c11.56,0,17.51,4.42,17.51,12.75v2.55c0,8.67-5.95,12.24-17.51,12.24h-57.63ZM-160.99,17.1l66.64,67.83V131h29.92V84.93L-2.04,17.1H-34.17l-40.8,44.2h-6.8L-125.8,17.1Z" transform="translate(874 5040)" fill="#1b1b1b"/>
  </g>
</svg>
