<svg xmlns="http://www.w3.org/2000/svg" width="323.721" height="13.888" viewBox="0 0 323.721 13.888">
  <path id="Unione_9" data-name="Unione 9" d="M311.171,13.838a10.37,10.37,0,0,1,.758-3.516,6.257,6.257,0,0,1,2.651-3.144,5.9,5.9,0,0,1-2.623-2.79,8.519,8.519,0,0,1-.787-3.225l3-.059a5.628,5.628,0,0,0,.53,2.065,3.276,3.276,0,0,0,4.958.92,4.7,4.7,0,0,0,1.053-2.936l3-.041a7.591,7.591,0,0,1-1.9,5.073,5.314,5.314,0,0,1-1.346.994,5.324,5.324,0,0,1,1.161.892,8.8,8.8,0,0,1,2.09,5.812l-1.5-.023-1.5-.016v-.005a5.86,5.86,0,0,0-1.231-3.667,2.608,2.608,0,0,0-1.949-.731,2.823,2.823,0,0,0-2.806,1.976,7.5,7.5,0,0,0-.552,2.471Zm-6.24.05V1.164h3.181V13.888ZM287.205.988h3.181V7.526H292.3a8.266,8.266,0,0,1-.231-1.943c0-3.39,1.784-5.583,4.544-5.583a4.452,4.452,0,0,1,3.664,1.827,5.423,5.423,0,0,1,.551,4.937,4.987,4.987,0,0,1-3.155,3.177,7.1,7.1,0,0,0,3.408.766v3a9.349,9.349,0,0,1-6.576-2.39,7.745,7.745,0,0,1-.726-.791h-3.388v3.357l-3.181,0Zm9.4,2.017c-.7,0-1.54.446-1.54,2.578a5.073,5.073,0,0,0,.343,1.84c1.2-.166,2.221-.582,2.561-1.61a2.493,2.493,0,0,0-.139-2.229A1.44,1.44,0,0,0,296.681,3ZM208.728,13.6c-4.248,0-7.326-1.818-7.326-5.814v-.81c0-3.978,3.078-5.724,7.326-5.724h.612c4.338,0,7.29,1.692,7.29,4.9v.09H214.6V6.15c0-1.944-1.854-3.168-5.256-3.168h-.612c-3.348,0-5.292,1.278-5.292,4v.81c0,2.79,1.944,4.086,5.292,4.086h.612c3.384,0,5.328-1.314,5.328-3.132V8.634h2.016v.108c0,3.024-3.006,4.86-7.344,4.86Zm58-.144v-5l-7.2-7.056h2.34l5.49,5.328h.864l5.2-5.328h2.124L268.7,8.454v5Zm-22.878,0V1.4h9.2c2.628,0,4.05.918,4.05,2.88V4.62A2.482,2.482,0,0,1,255.51,7v.45A2.574,2.574,0,0,1,257.4,10v.414c0,1.818-1.224,3.042-4.212,3.042Zm1.926-1.44h6.948c1.944,0,2.7-.72,2.7-1.908V9.822c0-1.224-.972-1.836-2.7-1.836h-6.948Zm0-5.31h6.912c1.53,0,2.412-.666,2.412-1.764V4.638c0-1.116-.684-1.8-2.412-1.8h-6.912Zm-25.128,6.75V1.4h12.672V2.964h-10.71V6.618h9.756V8.094h-9.756v3.78h10.8v1.584Zm-25.776,0L185.832,3.99h-.468v9.468h-1.89V1.4h2.574l9.036,9.468h.468V1.4h1.89v12.06Zm-28.17,0V1.4H179.37V2.964H168.66V6.618h9.756V8.094H168.66v3.78h10.8v1.584Zm-12.942,0v-1.62h3.474V3.018h-3.474V1.4h8.928v1.62H159.21v8.82h3.474v1.62Zm-5.472,0-3.42-4.806H138.4v4.806h-1.98V1.4h9.342c2.484,0,4.14,1.188,4.14,3.384v.54a3.174,3.174,0,0,1-2.844,3.222l3.492,4.914ZM138.4,7.122h6.84c1.584,0,2.646-.45,2.646-1.89V4.854c0-1.44-1.062-1.944-2.646-1.944H138.4Zm-18.756,6.336V1.4h12.672V2.964h-10.71V6.618h9.756V8.094h-9.756v3.78h10.8v1.584Zm-17.316,0V1.4h8.694c3.168,0,4.608,1.224,4.608,3.492v.522c0,2.358-1.44,3.546-4.608,3.546H104.31v4.5Zm1.98-6.12h6.462c1.836,0,2.844-.486,2.844-1.98V4.944c0-1.422-1.008-1.926-2.844-1.926H104.31Zm-7.92,6.12L91.332,8.346H90.27l-4.95,5.112H83.052l6.012-6.192L83.232,1.4h2.484l4.824,4.86h1.008L96.3,1.4h2.268L92.79,7.32l6.066,6.138Zm-29.3,0V1.4H79.758V2.964H69.048V6.618H78.8V8.094H69.048v3.78h10.8v1.584Zm-23.994,0V1.4h9.2c2.628,0,4.05.918,4.05,2.88V4.62A2.482,2.482,0,0,1,54.756,7v.45A2.574,2.574,0,0,1,56.646,10v.414c0,1.818-1.224,3.042-4.212,3.042Zm1.926-1.44h6.948c1.944,0,2.7-.72,2.7-1.908V9.822c0-1.224-.972-1.836-2.7-1.836H45.018Zm0-5.31H51.93c1.53,0,2.412-.666,2.412-1.764V4.638c0-1.116-.684-1.8-2.412-1.8H45.018Zm-18.7,6.75V1.4H38.988V2.964H28.278V6.618h9.756V8.094H28.278v3.78h10.8v1.584Zm-11.106,0L11.754,3.27h-.81L7.578,13.458H4.32L0,1.4H1.98L5.634,11.586h.828L9.828,1.4h3.24l3.438,10.188h.828L20.916,1.4h1.8l-4.248,12.06Z" transform="translate(0 0)" fill="#ebebeb"/>
</svg>
